<svg width="887" height="109" viewBox="0 0 887 109" fill="none" xmlns="http://www.w3.org/2000/svg">
<path d="M14 107H0V1H17L56 75L94 1H112V107H98V24L60 96H51L14 23V107Z" fill="white"/>
<path d="M187 108C156.6 108 132 83.8 132 54C132 24.2 156.6 0 187 0C217.4 0 242 24.2 242 54C242 83.8 217.4 108 187 108ZM188 15C165.4 15 147 32.5 147 54C147 75.5 165.4 93 188 93V17.2V15Z" fill="white"/>
<path d="M309.5 16.3C309.3 16.3 309.2 16.3 309 16.3C308.8 16.3 308.7 16.3 308.5 16.3C287 16.8 269.7 34 269.7 55C269.7 76 287 93.2 308.5 93.7C308.7 93.7 308.8 93.7 309 93.7C309.2 93.7 309.3 93.7 309.5 93.7C331 93.2 348.3 76 348.3 55C348.3 34 331 16.8 309.5 16.3ZM309 109C278.6 109 254 84.8 254 55C254 25.2 278.6 1 309 1C339.4 1 364 25.2 364 55C364 84.8 339.4 109 309 109Z" fill="white"/>
<path d="M400.9 107H386V1H400.7L461 83V1H475.9V107H460.7L400.9 26V107Z" fill="white"/>
<path d="M520.9 107H506V1H575.2V15C566.9 15 563.4 15 564.7 15C566 15 551.4 15 520.9 15V49H569.7V63H520.9V107V107Z" fill="white"/>
<path d="M593.5 107H577L624.5 1H639.5L686.5 107H670.5L659.5 82H604.5L593.5 107ZM631.5 18L610.5 68H653.5L631.5 18Z" fill="white"/>
<path d="M701 1H748.2C757.3 1 766.6 4.3 772.9 9.8C780.7 16.5 784.7 26.4 784.7 37.5C784.7 52.3 776.4 65.3 763.7 71C763.3 71.2 762.7 71.4 761.9 71.7L786.7 107H768.7L748.2 74H715.7V107H701V1ZM746.7 60C759.4 60 769.7 50.7 769.7 38C769.7 32.7 767.9 27.8 764.9 23.9C760.7 18.5 754.1 15 746.7 15H715.7V60H746.7Z" fill="white"/>
<path d="M887 107H811V1H885V15H826V47H878.3V61H826V93H887V107Z" fill="white"/>
</svg>
